{"title":"Marvels Agents of S.H.I.E.L.D. S01E10 HDTV 480p x264 - VYTO [P2P","uid":9333941,"size":145644265,"categoryP":"video","categoryS":"tv_shows","magnet":"?xt=urn:btih:2c37e49dc0747b8a44e7afa1b598b02889ac34ed&amp;dn=Marvels+Agents+of+S.H.I.E.L.D.+S01E10+HDTV+480p+x264+-+VYTO+%5BP2P&amp;tr=udp%3A%2F%2Ftracker.openbittorrent.com%3A80&amp;tr=udp%3A%2F%2Fopen.demonii.com%3A1337&amp;tr=udp%3A%2F%2Ftracker.coppersurfer.tk%3A6969&amp;tr=udp%3A%2F%2Fexodus.desync.com%3A6969","seeders":1,"leechers":0,"uploader":"ValidusVyto","files":-1,"time":1386819756,"description":"_______ Visit us at our Semi Public Bittorrent Community ________\n  &lt;a href=&quot;\nhttp://p2pdl.com&quot; rel=&quot;nofollow&quot; target=&quot;_NEW&quot;&gt;\nhttp://p2pdl.com&lt;/a&gt;  _____________________________ &lt;a href=&quot; http://p2pdl.com&quot; rel=&quot;nofollow&quot; target=&quot;_NEW&quot;&gt; http://p2pdl.com&lt;/a&gt;\n\n\n\nMarvels Agents of S.H.I.E.L.D. S01E10 HDTV 480p x264 - VYTO\n\n\nMarvels Agents of S.H.I.E.L.D. S01E10 (The Bridge) \n &lt;a href=&quot;\nhttp://www.imdb.com/title/tt3252318/&quot; rel=&quot;nofollow&quot; target=&quot;_NEW&quot;&gt;\nhttp://www.imdb.com/title/tt3252318/&lt;/a&gt;\n\nThe missions of the Strategic Homeland Intervention, Enforcement and Logistics Division. \n\n\nFormat                         : MPEG-4\nFile size                      : 136 MiB\nDuration                       : 40mn 51s\nOverall bit rate               : 464 Kbps\n\nVideo\nFormat                         : AVC\nBit rate                       : 421 Kbps\nWidth                          : 720 pixels\nHeight                         : 400 pixels\nDisplay aspect ratio           : 16:9\nFrame rate mode                : Constant\nFrame rate                     : 23.976 fps\nBit depth                      : 10 bits\nStream size                    : 123 MiB (91%)\nWriting library                : x264 core 140 r2377\n\nAudio\nFormat                         : AAC\nBit rate mode                  : Variable\nBit rate                       : 40.0 Kbps\nChannel count                  : 2 channels\nChannel positions              : Front: L R\nSampling rate                  : 48.0 KHz\nStream size                    : 11.7 MiB (9%)\nLanguage                       : English\n\nSource                         : 720p.HDTV.X264-DIMENSION\n &lt;a href=&quot;\nhttp://ultraimg.com/images/B8KEP.png&quot; rel=&quot;nofollow&quot; target=&quot;_NEW&quot;&gt;\nhttp://ultraimg.com/images/B8KEP.png&lt;/a&gt; &lt;a href=&quot;\nhttp://ultraimg.com/images/2GNV.png&quot; rel=&quot;nofollow&quot; target=&quot;_NEW&quot;&gt;\nhttp://ultraimg.com/images/2GNV.png&lt;/a&gt; &lt;a href=&quot;\nhttp://ultraimg.com/images/rg2KP.png&quot; rel=&quot;nofollow&quot; target=&quot;_NEW&quot;&gt;\nhttp://ultraimg.com/images/rg2KP.png&lt;/a&gt; &lt;a href=&quot;\nhttp://ultraimg.com/images/hDqQI.png&quot; rel=&quot;nofollow&quot; target=&quot;_NEW&quot;&gt;\nhttp://ultraimg.com/images/hDqQI.png&lt;/a&gt; &lt;a href=&quot;\nhttp://ultraimg.com/images/VCTNf.png&quot; rel=&quot;nofollow&quot; target=&quot;_NEW&quot;&gt;\nhttp://ultraimg.com/images/VCTNf.png&lt;/a&gt;\n\n----------------------------------------------------------------------------------------------------\n\n\nEncoded using revolutionary 10bit encoding, which enables us to provide you more crispier \nand sharper images at small sizes, just make sure you follow our instructions without a fault.\nRecommend to you to use latest version of VLC player. Install K-Lite Codec Pack or shark007 codecs\nin case of any kind of problem in playback (For non-VLC Media Player users). Alternatively, install\nCore AVC codecs, the fastest decoder that there is coupled with Community Center Codec Pack and play\non Windows Media Player Classic. Check sample to be sure.\nEnjoy!\n\nEncoder Notes:Looking For Early Access To Anything You Can Provide DVDScr, R5, DVDR, BluRay, Direct\nAudio, Music Releases and Seedboxes. We require dedicated servers, so as to do more \nand fast releases of movies.\nIf You Got anything to offer please contact us at &quot;&lt;a class=&quot;__cf_email__&quot; href=&quot;/cdn-cgi/l/email-protection&quot; data-cfemail=&quot;80f0f2e7c0e8f5f3e8aee3efed&quot;&gt;[email&amp;#160;protected]&lt;/a&gt;&lt;script data-cfhash='f9e31' type=&quot;text/javascript&quot;&gt;\n/* &lt;![CDATA[ */!function(){try{var t=&quot;currentScript&quot;in document?document.currentScript:function(){for(var t=document.getElementsByTagName(&quot;script&quot;),e=t.length;e--;)if(t[e].getAttribute(&quot;data-cfhash&quot;))return t[e]}();if(t&amp;&amp;t.previousSibling){var e,r,n,i,c=t.previousSibling,a=c.getAttribute(&quot;data-cfemail&quot;);if(a){for(e=&quot;&quot;,r=parseInt(a.substr(0,2),16),n=2;a.length-n;n+=2)i=parseInt(a.substr(n,2),16)^r,e+=String.fromCharCode(i);e=document.createTextNode(e),c.parentNode.replaceChild(e,c)}t.parentNode.removeChild(t);}}catch(u){}}()/* ]]&gt; */&lt;/script&gt;&quot;.\n\nOur Team Upload:   &lt;a href=&quot;\nhttp://thepiratebay.ac/user/vitamin_x&quot; rel=&quot;nofollow&quot; target=&quot;_NEW&quot;&gt;\nhttp://thepiratebay.ac/user/vitamin_x&lt;/a&gt;   &lt;a href=&quot;\nhttp://thepiratebay.ac/user/k3ly/&quot; rel=&quot;nofollow&quot; target=&quot;_NEW&quot;&gt;\nhttp://thepiratebay.ac/user/k3ly/&lt;/a&gt;   &lt;a href=&quot;\nhttp://thepiratebay.ac/user/BFAB/&quot; rel=&quot;nofollow&quot; target=&quot;_NEW&quot;&gt;\nhttp://thepiratebay.ac/user/BFAB/&lt;/a&gt;","torrent":{"xt":"urn:btih:2c37e49dc0747b8a44e7afa1b598b02889ac34ed","amp;dn":"Marvels+Agents+of+S.H.I.E.L.D.+S01E10+HDTV+480p+x264+-+VYTO+%5BP2P","amp;tr":["udp%3A%2F%2Ftracker.openbittorrent.com%3A80","udp%3A%2F%2Fopen.demonii.com%3A1337","udp%3A%2F%2Ftracker.coppersurfer.tk%3A6969","udp%3A%2F%2Fexodus.desync.com%3A6969"],"infoHash":"2c37e49dc0747b8a44e7afa1b598b02889ac34ed","infoHashBuffer":{"type":"Buffer","data":[44,55,228,157,192,116,123,138,68,231,175,161,181,152,176,40,137,172,52,237]},"announce":[],"urlList":[]}}